<svg xmlns="http://www.w3.org/2000/svg" viewBox="0 0 168 168" role="img" aria-label="Spotify">
  <circle cx="84" cy="84" r="84" fill="#1ED760"/>
  <path fill="#000" d="M120.9 118.6c-1.5 2.4-4.6 3.2-7 1.7-19.2-11.7-43.3-14.4-71.7-7.9-2.7.6-5.4-1.1-6-3.8-.6-2.7 1.1-5.4 3.8-6 31.1-7.1 57.8-4 79.3 9.1 2.4 1.5 3.1 4.6 1.6 6.9zm9.8-21.9c-1.9 3-5.8 3.9-8.8 2.1-22-13.5-55.5-17.4-81.5-9.5-3.3 1-6.8-.9-7.8-4.2-1-3.3.9-6.8 4.2-7.8 29.7-9 66.6-4.6 91.9 10.9 2.9 1.8 3.9 5.7 2 8.5zm.8-22.8C104.9 58.2 62 56.7 37.3 64.2c-4 1.2-8.2-1-9.4-5-1.2-4 1-8.2 5-9.4 28.4-8.6 75.7-6.9 105.6 10.9 3.6 2.1 4.8 6.7 2.7 10.3-2.1 3.6-6.7 4.8-10.3 2.7z"/>
</svg>
