<svg xmlns="http://www.w3.org/2000/svg" viewBox="0 0 1000 324" role="img" aria-label="Visa">
  <path fill="#1434CB" d="M651.2 3.9c-70.9 0-134.3 36.7-134.3 104.6 0 77.8 112.3 83.2 112.3 122.3 0 16.5-18.9 31.2-51.1 31.2-45.8 0-80-20.6-80-20.6l-14.6 68.4s39.4 17.4 91.7 17.4c77.5 0 138.5-38.5 138.5-107.5 0-82.2-112.8-87.4-112.8-123.7 0-12.9 15.5-27.1 47.6-27.1 36.3 0 65.9 15 65.9 15l14.3-66.1S680.9 3.9 651.2 3.9zM4.2 8.9L2.6 18.3s29.9 5.5 56.8 16.4c34.7 12.5 37.2 19.8 43 42.5l63.7 245.6h85.4L383.1 8.9h-85.2l-84.6 213.8-34.5-181.3c-3.2-20.8-19.2-32.5-38.9-32.5H4.2zm412.9 0l-66.8 315.9h81.2L497.9 8.9h-80.8zm452.8 0c-19.6 0-30 10.5-37.6 28.9L704.4 324.8h85.2l16.5-47.6h103.8l10 47.6H995L929.4 8.9h-59.5zm11.1 85.3l25.3 118H842.7l25.3-118z"/>
</svg>
